<svg version="1.1" xmlns="http://www.w3.org/2000/svg" xmlns:xlink="http://www.w3.org/1999/xlink" x="0px" y="0px" width="149x" height="72px" viewBox="0 0 149 72">
  <style>
    .page-header__logo-tablet,
    .page-header__logo-desktop {
      display: none;
    }

    @media (min-width: 768px) and (max-width: 1150px) {
      .page-header__logo-mobile,
      .page-header__logo-desktop {
        display: none;
      }

      .page-header__logo-tablet {
        display: inline-block;
      }
    }

    @media (min-width: 1150px) {
      .page-header__logo-mobile,
      .page-header__logo-tablet {
        display: none;
      }

      .page-header__logo-desktop {
        display: inline-block;
      }
    }
  </style>
  <g class="page-header__logo-mobile">
    <path d="M36.64 46.52c-.02-3.48-.26-6.94-.36-10.41l-.02-1.02.15.36c.54 1.35 1.1 2.66 1.84 3.92.73 1.25 1.1 2.58 1.52 3.94-.16.18-.26.39-.2.6-.03.15.06.24.21.3.54.46 1.55.23 2.12 0 .24-.1.47-.23.7-.36.28-.18.74-.57.6-.98l-.07-.23c.4-1.07.6-2.18.82-3.31.23-1.2.66-2.35 1.09-3.49l.13 1.56c.17 2.15.03 4.27 0 6.43 0 .7.05 1.37.19 2.07.06.29.31 1.52.23 1.58-.51.48-.36 1.06.33 1.21a2.8 2.8 0 0 0 2.33-.62c1.01-.94.53-2.4.3-3.58-.38-1.97.08-4.18.02-6.18-.06-2.26-.43-4.5-.4-6.77.03-1.83.33-3.72-.3-5.47l.12-.6c.16-.88-2.75-.42-3.21.39-.3.23-.44.52-.32.8.04.07.06.15.09.22a65.77 65.77 0 0 1-2.2 7.93c-.35 1-.76 1.98-1.1 2.98-.5-.93-.99-1.85-1.39-2.85-1.15-2.89-2.2-5.8-3.6-8.6.15-1.28-2.7-1.14-3.27.03-.68 1.42-.59 2.86-.37 4.4.26 1.71.3 3.4.32 5.14.04 3.35.3 6.69.35 10.04-.3.33-.39.74-.07 1.16.13.18.3.32.48.46.75.63 2.94.1 2.94-1.05zM54.83 28.14c-.08-.6-3.41.09-3.3.89.26 1.78.17 3.56.14 5.35-.03 1.72.4 3.28.62 4.97.22 1.74-.08 3.5.12 5.24.1.81.63 2.31.08 3.02-.36.44 1.23.28 1.3.27.65-.12 1.51-.33 1.94-.87.56-.7.17-2.05.05-2.82-.27-1.74-.1-3.54-.16-5.29-.06-1.68-.65-3.25-.65-4.95-.01-1.95.15-3.87-.14-5.8zM57.96 34.8c.9 2.5 4.65 1.32 6.55 1.46 3.24.24 2.27 4.6 2.31 6.64.02 1.09 1 2.9.18 3.8-.5.56-1.67.59-2.35.65-.69.05-1.86.26-2.31-.4-.84-1.19.07-3.2-.1-4.56-.1-.78-3.43-.08-3.3.88.29 2.21-1.18 5.18 2.02 5.56a15.2 15.2 0 0 0 6.32-.78c1-.34 1.94-.8 2.73-1.51.87-.8.58-1.98.35-2.99-.57-2.46.61-5.29-.99-7.45-1.74-2.35-4.96-.66-7.21-1.3-1.16-.33-1.18-1.91-1.17-2.86 0-1.2-.1-2.3-.23-3.5-.1-.88-.02-1.78.63-2.44.12-.12.72-.28.68-.28.3-.05.57-.06.9-.07 1.3-.06 3.88.19 3.38 2.09-.22.85 3.03.36 3.27-.53 1.02-3.88-6.14-3.13-8.16-2.6-1.86.5-3.92 1.56-4.02 3.7-.06 1.03.23 2.01.27 3.03.05 1.15-.16 2.32.25 3.45zM72.41 36.66c-.05 1.8-.2 3.6-.22 5.4 0 .91.15 1.84.28 2.74.12.85.4 1.97.15 2.8-.2.65 3 .24 3.26-.59.46-1.5-.2-3.4-.34-4.92-.15-1.45-.04-2.94.07-4.42 1.7-.1 3.42-.24 5.12 0 .07 1.16.16 2.31.27 3.47.09.98.15 1.95.16 2.93.02.86.12 2.1-.18 2.92-.65 1.73 2.65 1.59 3.13.3.6-1.58.43-3.54.33-5.2-.13-2.06-.4-4.1-.47-6.16-.1-3.19-.58-6.33-.6-9.51 0-1.67-3.33-1.1-3.33.28.01 3.04.42 6.04.57 9.07l.01.18c-1.64-.01-3.28.15-4.93.2.18-3.9-.51-7.76-.36-11.66.02-.5-3.26-.08-3.3.88-.14 3.78.5 7.52.38 11.3zM86.5 42.03c-.26.26-.17.42.04.5 0 1.48-.05 2.96-.18 4.43-.4.63.39.96.91.96h.08c.63 0 2.21-.3 2.3-1.15.15-1.77.2-3.53.19-5.3a26.53 26.53 0 0 0 3.41-4.74 25 25 0 0 1 1.68 3.86c.73 2.3 1.94 4.43 2.64 6.75.46 1.52 3.75.62 3.3-.89-.7-2.32-1.86-4.46-2.64-6.75-.8-2.32-2-4.36-3.05-6.57.85-1.64 1.7-3.28 2.47-4.96.7-1.52 1.22-3.21 2.6-4.28.48-.38.46-.76-.22-.8a3.71 3.71 0 0 0-2.33.62 9.04 9.04 0 0 0-2.7 3.6c-.78 1.72-1.6 3.42-2.45 5.11l-.2.37c-.4.27-.65.65-.53 1.07a60.47 60.47 0 0 1-2.1 3.88c-.26-4.66-.8-9.31-.97-13.98-.04-1.07-3.35-.4-3.3.89.2 5.78 1.02 11.55 1.08 17.34l-.04.04zM118.03 35.8c-.18-.7-1.16-.72-1.92-.65l-.03-.85c-.1-2.24-.13-4.53-.32-6.76-.18-2.07-1.34-2.81-3.35-2.74-2.04.08-4.4.45-6.3 1.19a5.89 5.89 0 0 0-3.84 4.78c-.47 2.54.2 5.24.3 7.79.14 2.95.07 5.9.06 8.86 0 .48 3.3.03 3.3-.89 0-2.33.04-4.67 0-7-.01-.7-.04-1.38-.09-2.07 1.16-.5 3.11.01 4.26.12.93.1 1.83-.14 2.73-.24.02 1.94.1 3.9.17 5.85.04 1 .4 2.97-.3 3.8-.36.43 1.25.29 1.32.28.66-.13 1.48-.34 1.93-.87.8-.94.39-3.2.34-4.32-.06-1.6-.08-3.22-.12-4.83.97-.14 2.04-.73 1.86-1.45zm-6.67-.16c-1.92-.05-3.82-.35-5.65.03-.08-1.05-.18-2.1-.25-3.15-.13-1.96.1-4.7 1.93-5.9.49-.31 1.41-.26 1.98-.36.82-.15 1.65-.33 2.38.16 1.02.67.77 3.08.77 4.1 0 1.69.18 3.37.26 5.06-.46.04-.94.07-1.42.06zM51.16 24.32c-.05.18.01.36.12.5v.11l.01.29c.07.19.19.34.37.44.32.2.73.23 1.1.2.44-.04.89-.2 1.25-.44l.21-.18c.44-.29.82-.7.62-1.15-.43-.93-.36-1.88-.35-2.87 0-.8-.82-1.05-1.5-.99-.61.05-1.83.49-1.84 1.28 0 .83-.06 1.7.1 2.52l-.1.3zM112.74 53.5c-1.56-.58-3.29-.61-4.85-.78-1.6-.17-3.25-.41-4.89-.56-1.64.05-3.3.02-4.97.13l-4.88.26c-6.49.3-13 .26-19.52.11-6.51-.12-13.04-.48-19.63-.45-3.29 0-6.56.1-9.86.25-1.63.28-3.24.5-4.9.91-1.62.4-3.15.9-4.8 1.05 1.63.36 3.34.29 4.96.3 1.58 0 3.25.14 4.88.23 3.23-.18 6.48-.25 9.73-.25 6.49-.03 13.01.32 19.56.45 6.55.14 13.12.18 19.69-.11l4.9-.27c1.6-.07 3.2-.13 4.83-.07 1.63-.15 3.26-.33 4.92-.53 1.67-.24 3.22-.63 4.86-.51h.07v-.05c.03-.18-.03-.32-.03-.48-.04.12-.04.26-.07.38z"/>
  </g>

  <g class="page-header__logo-tablet">
    <path d="M129.36 56.88c4.4.87.85-35.85.15-38.3-1.96-6.58-26.68-2.15-32.18-1.72-12.72.98-25.19-.96-37.61-.38-6.2.3-34.85-1.81-37.52 1.99-5.05 7.2-2.65 25.8-1.28 35.07-4.04.78 2.31 4.16 3.14 4.9 6.31 2.2 16.36-.22 23 .4 15.44 1.47 31.8-2.2 47.28-.96 4.5 1.14 9.6 1.02 14.23 1.24 3.41 5.57 19.66-2.46 20.8-2.24-.1-.02.5.1 0 0z"/>
    <g fill="#FFF">
      <path d="M45.2 39.41c-.08-2.54-.49-5.07-.46-7.62.03-2.06.37-4.19-.34-6.17l.14-.67c.18-1-3.1-.47-3.63.44-.32.27-.49.58-.35.9l.1.26a74.4 74.4 0 0 1-2.49 8.93c-.38 1.13-.84 2.23-1.23 3.35-.56-1.05-1.11-2.08-1.56-3.2-1.3-3.26-2.48-6.56-4.07-9.69.18-1.45-3.04-1.3-3.67.03-.77 1.6-.67 3.23-.42 4.95.28 1.94.33 3.84.36 5.8.04 3.77.34 7.53.4 11.3-.34.38-.44.84-.1 1.31a3 3 0 0 0 .55.52c.86.7 3.32.1 3.32-1.2-.02-3.91-.3-7.82-.4-11.73l-.02-1.15.16.41c.6 1.52 1.24 3 2.07 4.42.83 1.4 1.24 2.9 1.71 4.44-.18.2-.29.44-.22.67-.04.17.07.28.24.34.6.52 1.75.26 2.38 0 .27-.12.53-.25.78-.4.33-.2.84-.65.7-1.1l-.09-.27c.45-1.2.68-2.46.92-3.73.26-1.36.74-2.64 1.23-3.92l.15 1.76c.19 2.42.03 4.81 0 7.23 0 .8.05 1.55.21 2.34.07.33.35 1.72.27 1.8-.58.53-.41 1.18.36 1.35.87.2 1.98-.1 2.63-.7 1.14-1.05.6-2.7.34-4.02-.43-2.23.1-4.71.02-6.98zM53.13 40.06c-.07-1.9-.72-3.67-.73-5.58-.01-2.19.17-4.35-.15-6.53-.1-.69-3.85.1-3.72 1 .3 2 .2 4 .16 6.02-.04 1.94.44 3.7.69 5.6.25 1.96-.08 3.95.14 5.9.1.92.71 2.6.08 3.4-.4.5 1.4.32 1.48.31.73-.13 1.7-.37 2.19-.99.61-.78.18-2.3.05-3.18-.3-1.96-.11-3.98-.19-5.95zM68.63 36.9c-1.96-2.64-5.59-.74-8.13-1.46-1.3-.37-1.32-2.15-1.31-3.22 0-1.35-.11-2.6-.26-3.94-.12-1-.03-2 .7-2.75.14-.14.82-.32.77-.32.34-.06.64-.08 1.01-.1 1.47-.05 4.38.23 3.82 2.36-.25.96 3.41.41 3.68-.6 1.15-4.36-6.92-3.53-9.2-2.92-2.1.56-4.4 1.75-4.52 4.17-.06 1.16.25 2.26.3 3.4.06 1.33-.18 2.64.28 3.91 1.02 2.84 5.24 1.5 7.38 1.66 3.65.27 2.56 5.2 2.6 7.48.03 1.22 1.13 3.26.2 4.28-.56.63-1.88.66-2.64.73-.78.06-2.1.3-2.6-.44-.95-1.35.08-3.6-.12-5.15-.12-.88-3.86-.09-3.72 1 .33 2.5-1.33 5.83 2.28 6.26 2.32.27 4.93-.16 7.12-.88a8.4 8.4 0 0 0 3.08-1.7c.98-.9.65-2.23.4-3.37-.65-2.77.69-5.96-1.12-8.4zM85.07 36.73c-.11-3.59-.65-7.13-.67-10.72 0-1.88-3.76-1.24-3.75.32.01 3.43.47 6.8.64 10.22l.01.2c-1.85-.01-3.7.17-5.55.24.2-4.4-.58-8.76-.4-13.15.01-.55-3.69-.09-3.73 1-.16 4.24.56 8.46.43 12.7-.06 2.03-.23 4.05-.24 6.08-.01 1.04.16 2.07.3 3.1.15.94.47 2.2.18 3.14-.22.73 3.38.28 3.67-.66.51-1.68-.22-3.83-.39-5.54-.16-1.63-.04-3.31.08-4.98 1.93-.12 3.85-.28 5.77 0 .08 1.3.19 2.6.3 3.92.1 1.1.18 2.2.2 3.3 0 .96.13 2.36-.22 3.28-.73 1.95 3 1.79 3.54.34.66-1.77.47-3.98.36-5.85-.14-2.32-.45-4.62-.53-6.95zM101.14 40.97c-.9-2.62-2.25-4.91-3.43-7.4.95-1.85 1.91-3.7 2.78-5.59.79-1.71 1.37-3.62 2.92-4.83.55-.42.52-.85-.24-.9a4.22 4.22 0 0 0-2.63.7A10.2 10.2 0 0 0 97.5 27c-.88 1.95-1.8 3.86-2.76 5.77l-.21.42c-.47.3-.75.72-.6 1.2a67.15 67.15 0 0 1-2.38 4.37c-.28-5.25-.9-10.5-1.1-15.75-.03-1.2-3.76-.45-3.7 1 .22 6.52 1.15 13.02 1.21 19.53l-.04.05c-.29.3-.18.47.05.57 0 1.66-.06 3.33-.2 4.99-.45.7.44 1.08 1.03 1.08h.09c.7 0 2.49-.33 2.58-1.3.18-1.99.24-3.98.22-5.97a29.84 29.84 0 0 0 3.85-5.34c.72 1.4 1.4 2.82 1.89 4.35.81 2.6 2.18 4.99 2.97 7.6.51 1.71 4.23.7 3.71-1-.79-2.6-2.09-5.02-2.97-7.6zM123.44 36.57c-.2-.79-1.3-.8-2.15-.73l-.04-.95c-.12-2.53-.15-5.1-.37-7.63-.2-2.33-1.5-3.16-3.77-3.08-2.29.1-4.96.5-7.1 1.34-2.47.96-3.85 2.78-4.32 5.39-.53 2.86.22 5.9.35 8.77.15 3.33.06 6.66.06 9.98 0 .55 3.72.03 3.72-1 0-2.63.04-5.26 0-7.9-.02-.77-.05-1.54-.1-2.31 1.3-.57 3.5 0 4.8.13 1.04.1 2.05-.15 3.07-.27.02 2.19.1 4.4.2 6.59.04 1.12.44 3.35-.34 4.28-.42.49 1.4.32 1.47.31.75-.14 1.67-.38 2.19-.99.9-1.06.43-3.6.38-4.86-.08-1.81-.1-3.63-.14-5.44 1.1-.15 2.3-.82 2.1-1.63zm-13.87-.14l-.29-3.55c-.15-2.21.11-5.3 2.18-6.64.55-.36 1.59-.3 2.23-.42.92-.17 1.86-.37 2.69.18 1.14.76.86 3.47.86 4.62 0 1.9.2 3.8.3 5.7-.53.05-1.06.08-1.6.07-2.17-.05-4.31-.4-6.37.04zM49.91 25.37a3 3 0 0 0 1.4-.5l.25-.2c.5-.32.92-.79.69-1.3-.48-1.04-.4-2.1-.4-3.23.01-.91-.9-1.18-1.68-1.12-.69.07-2.06.56-2.07 1.45 0 .94-.07 1.91.1 2.84l-.1.33c-.05.2.02.4.14.56v.13l.02.32c.07.22.2.39.4.5.37.22.84.26 1.26.22z"/>
    </g>
  </g>

  <g class="page-header__logo-desktop">
    <path d="M143.16 31.4a38.94 38.94 0 0 1-4.65 2.77c.03-1.74-.12-3.46-.6-5.12l.15-1c.38-3.01.66-7.13-2-9.23-.34-.26-1.25-.03-1.92.28a4.64 4.64 0 0 0-.5-.42l-.23-.73c-.03-.12-.17-.2-.36-.22.29-.38.26-.82-.42-1.1-.38-.14-.76-.28-1.14-.4-.07-.08-.13-.1-.17-.06-.95-.3-1.9-.53-2.87-.7.14-.34.4-.82.55-1 .14-.16.28-.3.43-.44l.2-.17.06-.06.08-.06c.38-.29.85-.87.23-1.2-.57-.31-1.51-.15-2.01.23a6.55 6.55 0 0 0-2.1 2.37 50.08 50.08 0 0 0-6.07-.08.76.76 0 0 0 .14-.25c.18-.59-.9-.53-1.19-.5-1.56.21-3.12.42-4.69.61 1.37-3.77 3.09-8.57 1-12.26-1.19-2.1-3.9-2.58-6.1-2.65-2.43-.08-4.9.46-7.03 1.63-4.76 2.62-7.11 7.71-8.21 13.14-.5-.66-2.3-.42-2.65.47-.12.32-.22.64-.32.97-.16.18-.28.39-.35.64l-.04.17h-.2l.07-.3c.15-.12.25-.24.28-.37.57-2.3 1.16-4.6 1.95-6.82.27-.76-2.51-.4-2.8.42-.43 1.2-.8 2.4-1.13 3.62-.16.08-.35.2-.42.33l-.05.1a.9.9 0 0 0-.46-.17v-.96c0-.43-2.83-.04-2.83.75v1.57c-.16.07-.32.16-.47.27l-.19.17a.37.37 0 0 0-.12.25l-.02.07-.05.07c-.13.13-.19.33-.03.47.19.16.5.16.74.16l.14-.02v.47h-.67l-.41-.05c-.02-.39-.68-.46-1.35-.33v-.15c-.1-.6-.18-1.2-.23-1.8.23-.07.47-.17.68-.3.15-.1.32-.23.32-.43v-.2c0-.18-.4-.2-.5-.2-.19-.01-.39 0-.58.04-.08-1.31-.09-2.62-.09-3.93 0-.84-2.82-.31-2.82.76 0 1.78.01 3.57.2 5.34h-.28v-1.52c0-1.05-1.3-1.22-2.14-.81.31-.26.49-.62.37-1.04-.4-1.41-.78-2.83-.98-4.29-.18-1.4-3.01-.67-2.82.76.2 1.46.57 2.87.97 4.29.24.82 1.34.88 2.1.5a1 1 0 0 0-.36.77v.63c-.2-.1-.44-.16-.77-.16-1.06 0-1.68.88-1.4 1.47l-.5-.08a14.1 14.1 0 0 1-.7-3.83c-.03-.94-1.28-1.05-2.12-.67a.57.57 0 0 0-.05-.17c-.38-.8-.56-1.67-.78-2.53-.33-1.35-3.15-.6-2.82.75.16.64.3 1.28.52 1.9l-.06.01c-.3.09-.6.2-.85.4-.83.07-1.83.56-1.75 1.2l.2 1.43-1.63.26c-.3-.8-.5-1.6-.62-2.45-.13-.92-1.56-.85-2.33-.26a22.56 22.56 0 0 0-3.12-5.76c-2.63-3.44-7.1-4.61-11.25-3.8a8.97 8.97 0 0 0-5.04 2.65c-1.2 1.36-1.35 3.1-1.17 4.8.16 1.5.61 4.01 1.58 5.99-.35-.02-.7.04-.94.13-.29.12-.57.25-.84.4-1.94.02-3.87.01-5.8-.08-4.18-.2-8.3-.86-12.5-.74-.92.03-1.53.72-1.46 1.26a4.31 4.31 0 0 0-2.15 2.29 53.99 53.99 0 0 0-5.33-3.21c-.69-.35-3.3.7-2.29 1.22 1.84.94 3.57 2.07 5.28 3.22.51.34 1.32.13 1.84-.07l.17-.08a9.72 9.72 0 0 0 .24 4.5c.03.1.1.2.17.26-.02.34-.02.68 0 1.02v.16c-.4.2-.72.48-.77.84a37.38 37.38 0 0 0-.3 4.23c-.27.2-.46.47-.49.8a49.9 49.9 0 0 0 .47 9.95c.19 2.7.7 5.34 1.17 8l.17 1.25a9.7 9.7 0 0 0-.24 3.48c-.88.17-1.73.87-1.23 1.62a9.1 9.1 0 0 0 2.6 2.65 2.3 2.3 0 0 0-1.87.55c-.81.81-1.71 1.53-2.53 2.34-.43.42-.31.94.3 1.08a2.3 2.3 0 0 0 1.99-.54c.81-.8 1.71-1.53 2.53-2.34.25-.24.3-.51.2-.73 3.21 1.74 7.24 1.27 11.12.95a34.55 34.55 0 0 0-2.17 5c-.26.71 2.5.37 2.8-.44a33.4 33.4 0 0 1 2.1-4.9c3.74.12 7.48.12 11.22.05.15.19.41.3.74.34 3.27.31 6.5-.1 9.7-.7 4.78-.23 9.57-.53 14.36-.8 7.52-.2 15.05-.35 22.58-.33.1.11.2.22.32.32.27.26.62.34.98.33l.2.02a69.72 69.72 0 0 1 2.7.19l2.35.2c.17.22.5.35.79.37 3.8.25 7.61.52 11.42.7.14.23.54.34.82.34 7.07.06 15.28 2.8 21.56-1.73.5-.36.27-.88-.26-.99a2 2 0 0 0-.33-.03l.02-.04a60.72 60.72 0 0 0 2.95-8.56c.36-.2.63-.5.64-.86.05-1.19.2-2.4.38-3.64.16-.88.3-1.77.44-2.66.38-2.16.8-4.36 1.01-6.54a50.04 50.04 0 0 0 6.63-3.82c1.56-1.11-.79-1.88-1.84-1.13zM87.83 16.35l-.13.12.23-.93h.11l-.2.81z"/>
    <path d="M63.26 12.63c.13.2.56.21.75.21.38 0 .76-.08 1.11-.22.4-.17 1.1-.56.77-1.07-.36-.56-.6-1.2-.98-1.76-.12-.2-.56-.21-.75-.21-.38 0-.76.08-1.1.22-.4.17-1.1.56-.77 1.07.36.56.6 1.2.97 1.76zM20.68 10.9c.22.65 1.11.65 1.65.51.47-.13 1.4-.62 1.18-1.26-.21-.62-.44-1.3-.9-1.78-.48-.5-1.32-.42-1.9-.15-.41.19-1.18.84-.7 1.35.39.4.48.77.67 1.34zM30.66 13.9c.84 0 3.07-1.28 1.19-1.28-.85 0-3.08 1.28-1.19 1.28zM122.56 12.27c.35.08.72.04 1.06-.06.32-.08.7-.23.94-.47.35-.36.73-.73.96-1.18.1-.2.17-.4 0-.59-.2-.2-.51-.24-.77-.25a2.7 2.7 0 0 0-1.1.22c-.26.1-.62.3-.76.56-.1.18-.22.35-.35.5l-.02.04a.58.58 0 0 0-.03.03l-.2.2c-.15.15-.34.36-.28.61.07.24.34.35.55.4zM135.86 17.7c.63-.07 1.4-.25 1.9-.67 1.31-1.1 2.6-2.25 3.62-3.64.29-.4-1.05-.24-1.12-.23-.53.1-1.32.27-1.66.74a19.72 19.72 0 0 1-3.4 3.38c-.49.41.45.43.66.41zM146.74 44.77h-4.87c-.62 0-1.48.47-1.56 1.14-.09.74.76.92 1.3.92h4.88c.61 0 1.47-.47 1.55-1.14.1-.74-.75-.92-1.3-.92zM57.02 60.78c-.5.08-1.41.3-1.64.83a34.65 34.65 0 0 0-1.36 3.9c-.21.73 2.57.33 2.8-.45.38-1.33.82-2.62 1.36-3.9.22-.52-.97-.4-1.16-.38zM61.6 63.38c-.35 0-.7.06-1.03.15-.33.09-.67.2-.97.38-.14.08-.33.2-.33.39l-.02.35a.76.76 0 0 1-.12.27c-.06.08-.1.18.02.25.2.12.5.08.71.06.38-.03.75-.12 1.1-.25.24-.08.61-.2.8-.4a.96.96 0 0 0 .28-.5c.04-.18.05-.36.05-.54 0-.16-.42-.16-.49-.16zM116.65 67.05c-.35-.68-3.04.33-2.82.76.84 1.64 1.94 3.12 2.92 4.68.44.68 3.04-.42 2.83-.76-.99-1.56-2.08-3.04-2.93-4.68zM120.74 64.71c-.29-.58-1.06-.56-1.62-.41-.35.1-1.49.6-1.2 1.17l1.17 2.34c.3.59 1.07.56 1.62.41.35-.1 1.49-.6 1.2-1.17l-1.17-2.34zM5.67 43.1c-1.49.36-3 .58-4.48.98-.54.15-1.34.64-1.16 1.32.18.67 1.13.7 1.66.56 1.48-.4 3-.62 4.48-.98.54-.13 1.34-.65 1.16-1.31-.18-.69-1.12-.7-1.66-.57z"/>
    <g fill="#FFF">
      <path d="M43.75 40.1c-.08-2.7-.51-5.39-.48-8.1.03-2.2.4-4.45-.36-6.56l.14-.71c.2-1.06-3.3-.5-3.85.47-.34.28-.52.62-.38.96l.1.26a78.93 78.93 0 0 1-2.64 9.5c-.4 1.2-.9 2.37-1.3 3.57-.6-1.12-1.19-2.22-1.67-3.41-1.38-3.47-2.63-6.97-4.32-10.3.19-1.54-3.23-1.38-3.9.03-.83 1.71-.72 3.44-.45 5.26.3 2.06.35 4.09.38 6.17.05 4.01.36 8.02.42 12.03-.36.4-.47.89-.1 1.38.17.22.37.39.58.56.92.73 3.54.1 3.53-1.28-.01-4.16-.31-8.32-.42-12.47L29 36.23l.18.44c.64 1.62 1.32 3.2 2.2 4.7.88 1.49 1.32 3.09 1.82 4.72-.19.21-.3.46-.23.71-.04.18.07.3.25.36.65.56 1.86.28 2.53 0 .3-.12.57-.27.84-.43.34-.21.89-.69.73-1.17l-.09-.28c.48-1.28.72-2.61.98-3.97.27-1.44.79-2.8 1.3-4.17l.16 1.88c.2 2.57.04 5.11.01 7.7 0 .85.05 1.64.22 2.48.07.34.37 1.82.28 1.9-.61.57-.43 1.27.4 1.45.92.2 2.1-.1 2.79-.75 1.2-1.12.64-2.87.36-4.28-.46-2.36.1-5 .02-7.41zM52.2 40.79c-.08-2-.78-3.9-.79-5.93-.01-2.32.18-4.63-.15-6.95-.11-.73-4.1.1-3.96 1.06.31 2.13.2 4.27.16 6.42-.03 2.06.48 3.93.74 5.95.27 2.08-.09 4.2.15 6.27.11.98.76 2.77.09 3.62-.42.53 1.48.34 1.57.33.77-.15 1.8-.4 2.32-1.05.66-.84.2-2.45.06-3.39-.32-2.08-.12-4.23-.2-6.33zM68.67 37.44c-2.08-2.81-5.94-.79-8.64-1.56-1.39-.4-1.4-2.29-1.4-3.42 0-1.44-.12-2.76-.28-4.19-.12-1.06-.02-2.14.76-2.93.14-.14.86-.34.81-.34a8.1 8.1 0 0 1 1.08-.1c1.56-.06 4.65.24 4.06 2.51-.27 1.02 3.62.44 3.9-.64 1.23-4.64-7.34-3.75-9.77-3.1-2.23.59-4.69 1.86-4.81 4.43-.07 1.23.27 2.4.32 3.62.06 1.4-.2 2.8.3 4.16 1.09 3 5.56 1.59 7.84 1.76 3.88.29 2.73 5.52 2.77 7.95.03 1.3 1.2 3.46.22 4.55-.6.67-2 .7-2.82.78-.82.06-2.22.31-2.77-.47-1-1.43.1-3.83-.12-5.47-.12-.94-4.1-.1-3.95 1.06.34 2.65-1.41 6.2 2.42 6.65 2.47.3 5.24-.16 7.57-.94 1.2-.4 2.33-.95 3.27-1.8 1.05-.96.7-2.38.42-3.59-.68-2.94.74-6.33-1.18-8.92zM86.16 37.25c-.13-3.81-.7-7.58-.72-11.4 0-2-4-1.32-3.99.34.02 3.64.5 7.24.69 10.87l.01.22c-1.97-.02-3.93.18-5.9.25.2-4.68-.62-9.31-.44-13.99.02-.58-3.91-.09-3.95 1.06-.18 4.52.59 9 .45 13.52-.06 2.15-.25 4.3-.26 6.46 0 1.1.17 2.2.33 3.29.15 1 .49 2.35.18 3.35-.23.78 3.6.3 3.9-.7.55-1.8-.22-4.08-.4-5.9-.18-1.73-.05-3.52.08-5.29 2.05-.13 4.1-.3 6.13-.01.1 1.39.2 2.78.33 4.17.1 1.17.18 2.33.2 3.5.01 1.03.14 2.53-.23 3.5-.78 2.07 3.18 1.9 3.76.37.71-1.89.5-4.24.39-6.22-.16-2.47-.48-4.92-.56-7.4zM103.24 41.76c-.95-2.78-2.4-5.22-3.65-7.87 1.01-1.96 2.04-3.93 2.96-5.94.84-1.82 1.46-3.85 3.1-5.14.59-.45.56-.9-.25-.96-.88-.06-2.08.2-2.8.75a10.84 10.84 0 0 0-3.22 4.3c-.94 2.08-1.92 4.11-2.94 6.14l-.23.45c-.5.31-.8.77-.64 1.27a72.02 72.02 0 0 1-2.52 4.66c-.3-5.59-.97-11.17-1.17-16.75-.04-1.29-4-.49-3.95 1.05.25 6.94 1.23 13.85 1.3 20.78l-.05.05c-.3.31-.19.5.05.6 0 1.77-.06 3.54-.2 5.31-.48.75.46 1.15 1.09 1.15h.1c.74 0 2.64-.35 2.74-1.38.19-2.12.25-4.23.23-6.35a31.66 31.66 0 0 0 4.1-5.68c.76 1.5 1.49 3 2 4.62.87 2.77 2.32 5.31 3.16 8.09.55 1.82 4.5.74 3.95-1.06-.84-2.78-2.22-5.34-3.16-8.09zM126.96 37.09c-.21-.85-1.39-.86-2.3-.78l-.03-1.02c-.13-2.68-.17-5.43-.4-8.1-.2-2.48-1.6-3.37-4-3.28-2.44.1-5.28.53-7.55 1.42-2.63 1.02-4.1 2.96-4.6 5.73-.56 3.04.24 6.28.37 9.33.16 3.54.07 7.08.07 10.62 0 .57 3.95.03 3.95-1.06 0-2.8.04-5.6 0-8.4-.02-.83-.05-1.65-.1-2.47 1.38-.6 3.72.01 5.1.14 1.1.1 2.18-.17 3.26-.3.03 2.34.11 4.69.2 7.02.06 1.19.49 3.56-.35 4.55-.44.52 1.5.34 1.57.33.8-.15 1.78-.4 2.32-1.05.96-1.13.46-3.82.41-5.17-.08-1.93-.1-3.86-.14-5.8 1.16-.14 2.44-.86 2.22-1.71zm-14.75-.16c-.1-1.25-.22-2.51-.3-3.77-.17-2.36.11-5.64 2.3-7.07.59-.38 1.7-.31 2.38-.44.98-.18 1.97-.4 2.85.2 1.23.8.92 3.68.92 4.9 0 2.03.21 4.04.32 6.06-.56.06-1.13.1-1.7.08-2.31-.05-4.59-.42-6.77.04zM48.77 25.18a3.2 3.2 0 0 0 1.5-.53l.25-.22c.52-.34.98-.84.73-1.38-.5-1.11-.42-2.25-.41-3.44 0-.97-.98-1.26-1.8-1.19-.73.07-2.19.6-2.2 1.54 0 1-.07 2.03.11 3.02-.05.11-.07.24-.1.36a.7.7 0 0 0 .14.6v.13l.02.33a.9.9 0 0 0 .43.54c.4.24.89.28 1.33.24z"/>
    </g>
  </g>
</svg>
